<svg width="392" height="126" viewBox="0 0 392 126" fill="none" xmlns="http://www.w3.org/2000/svg">
<path d="M162.656 91.6215V36.339H171.014V58.408L192.863 36.339H203.641L178.419 60.8276L203.788 91.6215H192.936L172.554 66.3265L171.014 67.6462V91.6215H162.656Z" fill="#141416"/>
<path d="M229.157 55.7686C231.747 55.7686 234.069 56.2085 236.122 57.0883C238.175 57.9192 239.886 59.1412 241.254 60.7542C242.672 62.3672 243.747 64.3224 244.48 66.6197C245.213 68.8682 245.58 71.3855 245.58 74.1716V76.0779H220.578C220.823 78.9618 221.727 81.2591 223.291 82.9699C224.855 84.6317 226.982 85.4627 229.67 85.4627C231.625 85.4627 233.287 85.0228 234.656 84.143C236.073 83.2631 237.393 81.7968 238.615 79.7438L245.213 83.7764C243.503 86.7091 241.352 88.9331 238.761 90.4484C236.171 91.9148 233.043 92.6479 229.377 92.6479C226.786 92.6479 224.415 92.208 222.265 91.3282C220.163 90.4484 218.354 89.202 216.839 87.5889C215.373 85.9759 214.224 84.0452 213.393 81.7968C212.562 79.4994 212.147 76.9821 212.147 74.2449C212.147 71.5077 212.538 69.0148 213.32 66.7664C214.151 64.4691 215.299 62.5139 216.766 60.9009C218.281 59.2879 220.09 58.0414 222.191 57.1616C224.293 56.2329 226.615 55.7686 229.157 55.7686ZM221.092 69.4792H237.295C236.953 67.3285 236.049 65.7155 234.582 64.6401C233.165 63.5159 231.381 62.9538 229.23 62.9538C227.079 62.9538 225.32 63.5404 223.951 64.7135C222.582 65.8866 221.629 67.4751 221.092 69.4792Z" fill="#141416"/>
<path d="M259.054 56.7217H267.119V59.8744H267.266C268.586 58.4569 269.808 57.4304 270.932 56.795C272.105 56.1107 273.547 55.7686 275.258 55.7686C277.36 55.7686 279.559 56.4773 281.856 57.8948L278.19 65.2267C276.675 64.1513 275.184 63.6137 273.718 63.6137C269.319 63.6137 267.119 66.913 267.119 73.5117V91.6215H259.054V56.7217Z" fill="#141416"/>
<path d="M300.724 56.7217V60.461H300.871C302.142 58.9946 303.608 57.8459 305.27 57.015C306.981 56.184 309.034 55.7686 311.429 55.7686C315.486 55.7686 318.492 57.0394 320.447 59.5811C322.451 62.074 323.453 65.6177 323.453 70.2124V91.6215H315.388V72.1187C315.388 68.746 314.85 66.3998 313.775 65.08C312.699 63.7114 311.038 63.0271 308.789 63.0271C306.296 63.0271 304.317 63.8581 302.85 65.52C301.433 67.1819 300.724 70.0413 300.724 74.0983V91.6215H292.659V56.7217H300.724Z" fill="#141416"/>
<path d="M353.241 55.7686C355.832 55.7686 358.153 56.2085 360.206 57.0883C362.259 57.9192 363.97 59.1412 365.339 60.7542C366.756 62.3672 367.832 64.3224 368.565 66.6197C369.298 68.8682 369.665 71.3855 369.665 74.1716V76.0779H344.663C344.907 78.9618 345.811 81.2591 347.376 82.9699C348.94 84.6317 351.066 85.4627 353.754 85.4627C355.71 85.4627 357.371 85.0228 358.74 84.143C360.158 83.2631 361.477 81.7968 362.699 79.7438L369.298 83.7764C367.587 86.7091 365.437 88.9331 362.846 90.4484C360.255 91.9148 357.127 92.6479 353.461 92.6479C350.87 92.6479 348.5 92.208 346.349 91.3282C344.247 90.4484 342.439 89.202 340.924 87.5889C339.457 85.9759 338.309 84.0452 337.478 81.7968C336.647 79.4994 336.231 76.9821 336.231 74.2449C336.231 71.5077 336.622 69.0148 337.404 66.7664C338.235 64.4691 339.384 62.5139 340.85 60.9009C342.365 59.2879 344.174 58.0414 346.276 57.1616C348.378 56.2329 350.699 55.7686 353.241 55.7686ZM345.176 69.4792H361.38C361.037 67.3285 360.133 65.7155 358.667 64.6401C357.249 63.5159 355.465 62.9538 353.314 62.9538C351.164 62.9538 349.404 63.5404 348.035 64.7135C346.667 65.8866 345.714 67.4751 345.176 69.4792Z" fill="#141416"/>
<path d="M383.139 91.6215V31.5H391.204V91.6215H383.139Z" fill="#141416"/>
<path d="M63.2033 0.000102451C68.9834 0.0252881 73.6554 4.68464 73.6302 10.4018C73.605 16.1189 68.9079 20.7531 63.1152 20.7279C57.335 20.7027 52.6631 16.0434 52.6883 10.3262C52.7135 4.59649 57.4232 -0.0250832 63.2033 0.000102451ZM69.4368 40.8639C66.3389 36.1668 59.8032 36.1416 56.6676 40.8135C49.4897 51.5174 38.8487 68.9585 38.811 78.3402C38.7606 92.4945 49.5023 104.017 62.8129 104.067C76.1236 104.118 86.9534 92.6834 87.0038 78.5165C87.0416 69.1348 76.5391 51.6182 69.4368 40.8639Z" fill="#FFCC00"/>
<path d="M91.7897 8.26894C89.2081 6.95928 86.0473 7.95411 84.7251 10.4979C83.3903 13.0416 84.4103 16.1772 86.9792 17.4995C104.597 26.4908 115.502 44.2719 115.426 63.8789C115.389 72.6184 113.16 80.8415 109.269 88.0572C109.81 85.2616 110.112 82.3904 110.125 79.4437C110.163 68.0472 106.02 57.0536 98.4387 48.4905C96.5246 46.3371 93.2127 46.1104 91.0341 48.012C88.8555 49.9009 88.6415 53.1876 90.543 55.341C96.4364 62.0026 99.6728 70.5531 99.635 79.4185C99.5595 98.8115 84.0451 114.666 64.6647 115.573C64.035 115.598 63.4054 115.61 62.7758 115.61C62.1461 115.61 61.5165 115.585 60.8868 115.56C41.5065 114.515 26.1054 98.547 26.181 79.1289C26.2062 70.7672 29.0269 62.9219 34.3159 56.4366C36.1419 54.2076 35.7893 50.9335 33.5352 49.1327C31.2811 47.3319 27.9817 47.6845 26.1558 49.9135C19.4438 58.1366 15.7289 68.5005 15.6911 79.0911C15.6785 82.0378 15.9556 84.9216 16.4719 87.7172C12.6311 80.4763 10.4651 72.228 10.4903 63.5012C10.5658 43.8815 21.5972 26.2011 39.2901 17.3232C41.8716 16.0261 42.9043 12.9031 41.5946 10.3468C40.2849 7.79041 37.1241 6.77039 34.5426 8.05486C13.3237 18.6958 0.0885913 39.9274 0.000441389 63.4508C-0.125487 97.0107 26.7099 124.539 60.3076 125.924C61.1135 125.962 61.9195 125.987 62.738 125.999C97.4565 126.125 125.803 98.27 125.929 63.9167C126.017 40.3807 112.933 19.061 91.7897 8.26894Z" fill="#25E899"/>
</svg>
