<?xml version="1.0" encoding="UTF-8" standalone="no"?>
<!DOCTYPE svg PUBLIC "-//W3C//DTD SVG 1.1//EN" "http://www.w3.org/Graphics/SVG/1.1/DTD/svg11.dtd">
<svg width="311" height="63" viewBox="0 0 311 63" version="1.1" xmlns="http://www.w3.org/2000/svg" xmlns:xlink="http://www.w3.org/1999/xlink" xml:space="preserve" xmlns:serif="http://www.serif.com/" style="fill-rule:evenodd;clip-rule:evenodd;stroke-linejoin:round;stroke-miterlimit:2;">
    <g transform="matrix(1,0,0,1,-872.867,-652.255)">
        <g>
            <g transform="matrix(1,0,0,1,908.552,673.976)">
                <path d="M0,16.346L-8.262,-2.598L-16.923,16.346L-20.423,24.248L-26.629,37.779L-35.685,37.779L-8.119,-21.433L18.475,37.779L9.273,37.779L3.428,24.248L0,16.346Z" style="fill-rule:nonzero;"/>
            </g>
            <g transform="matrix(1,0,0,1,942.782,689.528)">
                <path d="M0,-11.258L21.686,-33.485L32.908,-33.485L7.722,-8.263L33.052,22.227L21.794,22.227L1.732,-2.562L0,-0.83L0,22.227L-8.407,22.227L-8.407,-33.485L0,-33.485L0,-11.258Z" style="fill-rule:nonzero;"/>
            </g>
            <g transform="matrix(-1,0,0,1,1980.33,205.62)">
                <rect x="985.961" y="450.424" width="8.407" height="55.712"/>
            </g>
            <g transform="matrix(1,0,0,1,1007.76,655.647)">
                <path d="M0,56.108L0,-3.392L40.629,39.113L40.629,0.396L49.037,0.396L49.037,59.5L8.407,17.103L8.407,56.108L0,56.108Z" style="fill-rule:nonzero;"/>
            </g>
            <g transform="matrix(1,0,0,1,1078.55,663.946)">
                <path d="M0,39.908L9.713,39.908C13.49,39.908 15.861,39.511 18.364,38.717C20.865,37.875 23.126,36.54 25.147,34.711C29.284,30.935 31.353,26.016 31.353,19.954C31.353,13.844 29.308,8.889 25.219,5.088C21.538,1.696 16.881,-0 9.713,-0L0,-0L0,39.908ZM-8.407,47.81L-8.407,-7.902L9.208,-7.902C14.813,-7.902 18.471,-7.348 21.719,-6.242C25.206,-5.16 28.37,-3.319 31.209,-0.722C36.957,4.523 39.833,11.415 39.833,19.954C39.833,28.518 36.838,35.446 30.848,40.737C27.841,43.384 24.689,45.224 21.394,46.258C18.315,47.293 14.716,47.81 9.064,47.81L-8.407,47.81Z" style="fill-rule:nonzero;"/>
            </g>
            <g transform="matrix(1,0,0,1,1133.53,684.007)">
                <path d="M0,-0.252C0,5.907 2.068,10.97 6.206,14.939C10.319,18.908 15.07,20.893 20.459,20.893C26.304,20.893 31.235,18.872 35.252,14.83C39.27,10.741 41.278,5.762 41.278,-0.107C41.278,-6.049 39.294,-11.028 35.325,-15.046C31.38,-19.087 26.496,-21.108 20.675,-21.108C14.878,-21.108 9.982,-19.087 5.99,-15.046C1.996,-11.052 0,-6.121 0,-0.252M-8.48,-0.36C-8.48,-8.202 -5.605,-14.938 0.144,-20.566C5.869,-26.196 12.749,-29.01 20.783,-29.01C28.722,-29.01 35.529,-26.171 41.206,-20.494C46.907,-14.817 49.758,-7.997 49.758,-0.035C49.758,7.975 46.895,14.771 41.17,20.352C35.421,25.957 28.481,28.758 20.351,28.758C13.158,28.758 6.699,26.269 0.974,21.289C-5.328,15.781 -8.48,8.564 -8.48,-0.36" style="fill-rule:nonzero;"/>
            </g>
            <g transform="matrix(0,-1,-1,0,908.23,682.497)">
                <path d="M-10.657,-10.657C-16.543,-10.657 -21.314,-5.886 -21.314,-0C-21.314,5.886 -16.543,10.657 -10.657,10.657C-4.771,10.657 -0,5.886 -0,-0C-0,-5.886 -4.771,-10.657 -10.657,-10.657" style="fill:rgb(193,39,45);fill-rule:nonzero;"/>
            </g>
            <g transform="matrix(1,0,0,1,908.23,701.781)">
                <path d="M0,-17.254C-4.757,-17.254 -8.627,-13.384 -8.627,-8.627C-8.627,-3.87 -4.757,-0 0,-0C4.758,-0 8.627,-3.87 8.627,-8.627C8.627,-13.384 4.758,-17.254 0,-17.254M0,4.06C-6.996,4.06 -12.688,-1.631 -12.688,-8.627C-12.688,-15.622 -6.996,-21.314 0,-21.314C6.996,-21.314 12.688,-15.622 12.688,-8.627C12.688,-1.631 6.996,4.06 0,4.06" style="fill-rule:nonzero;"/>
            </g>
        </g>
    </g>
</svg>
