<svg width="165" height="38" viewBox="0 0 165 38" fill="none" xmlns="http://www.w3.org/2000/svg">
  <g clip-path="url(#clip0_3371_3682)">
    <path
      fill-rule="evenodd"
      clip-rule="evenodd"
      d="M14.9729 25.0265L10.047 36.9187L12.6576 38L17.5872 26.0989V31.7137H20.4128V26.1085L24.5739 36.1543L27.1845 35.073L23.0203 25.0197L29.3016 31.301L31.2996 29.303L24.8922 22.8956C23.6275 24.8041 21.4604 26.0626 18.9994 26.0626C15.098 26.0626 11.9353 22.8999 11.9353 18.9985C11.9353 15.0971 15.098 11.9344 18.9994 11.9344C21.4619 11.9344 23.6301 13.1944 24.8945 15.1049L31.3035 8.69598L29.3054 6.69796L23.0197 12.9837L27.9498 1.08132L25.3393 0L20.4128 11.8935V6.283H17.5872V11.9031L13.4215 1.84619L10.8109 2.92751L14.9735 12.9769L8.69457 6.69796L6.69654 8.69598L12.9747 14.9741L2.57212 10.6652L1.4908 13.2758L11.8973 17.5863H4.87183V20.4119H11.9001L0 25.3411L1.08132 27.9516L12.9806 23.0228L6.70037 29.303L8.69839 31.301L14.9729 25.0265ZM48.7022 27.2199C47.6902 27.2199 46.7735 27.0586 45.9522 26.7359C45.1309 26.3986 44.4269 25.9146 43.8402 25.2839C43.2535 24.6385 42.7989 23.8465 42.4762 22.9079C42.1535 21.9545 41.9922 20.8692 41.9922 19.6519V18.7279C41.9922 17.5692 42.1535 16.5352 42.4762 15.6259C42.7989 14.7165 43.2535 13.9465 43.8402 13.3159C44.4269 12.6852 45.1309 12.2085 45.9522 11.8859C46.7882 11.5485 47.7049 11.3799 48.7022 11.3799C49.6115 11.3799 50.4255 11.5119 51.1442 11.7759C51.8775 12.0252 52.5082 12.3772 53.0362 12.8319C53.5642 13.2865 53.9895 13.8219 54.3122 14.4379C54.6495 15.0539 54.8695 15.7212 54.9722 16.4399H52.1122C52.0095 16.0585 51.8555 15.7065 51.6502 15.3839C51.4595 15.0612 51.2249 14.7825 50.9462 14.5479C50.6675 14.3132 50.3375 14.1299 49.9562 13.9979C49.5895 13.8659 49.1715 13.7999 48.7022 13.7999C48.1155 13.7999 47.5802 13.9025 47.0962 14.1079C46.6122 14.3132 46.1942 14.6212 45.8422 15.0319C45.5049 15.4279 45.2409 15.9339 45.0502 16.5499C44.8595 17.1659 44.7642 17.8919 44.7642 18.7279V19.6519C44.7642 20.5319 44.8595 21.2945 45.0502 21.9399C45.2555 22.5852 45.5269 23.1206 45.8642 23.5459C46.2162 23.9712 46.6342 24.2866 47.1182 24.4919C47.6022 24.6972 48.1302 24.7999 48.7022 24.7999C49.1569 24.7999 49.5675 24.7339 49.9342 24.6019C50.3009 24.4699 50.6235 24.2792 50.9022 24.0299C51.1809 23.7806 51.4155 23.4799 51.6062 23.1279C51.8115 22.7759 51.9655 22.3799 52.0682 21.9399H54.9722C54.8695 22.7172 54.6495 23.4286 54.3122 24.0739C53.9895 24.7192 53.5642 25.2766 53.0362 25.7459C52.5082 26.2152 51.8775 26.5819 51.1442 26.8459C50.4255 27.0952 49.6115 27.2199 48.7022 27.2199ZM157.937 27.2199C156.911 27.2199 155.972 27.0586 155.121 26.7359C154.285 26.3986 153.567 25.9146 152.965 25.2839C152.379 24.6385 151.924 23.8465 151.601 22.9079C151.279 21.9545 151.117 20.8692 151.117 19.6519V18.7279C151.117 17.5692 151.279 16.5352 151.601 15.6259C151.924 14.7165 152.379 13.9465 152.965 13.3159C153.567 12.6852 154.285 12.2085 155.121 11.8859C155.972 11.5485 156.911 11.3799 157.937 11.3799C158.979 11.3799 159.917 11.5485 160.753 11.8859C161.589 12.2085 162.301 12.6852 162.887 13.3159C163.489 13.9319 163.951 14.6945 164.273 15.6039C164.596 16.5132 164.757 17.5546 164.757 18.7279V19.6519C164.757 20.8692 164.596 21.9472 164.273 22.8859C163.951 23.8246 163.489 24.6166 162.887 25.2619C162.301 25.9072 161.582 26.3986 160.731 26.7359C159.895 27.0586 158.964 27.2199 157.937 27.2199ZM157.937 24.7999C158.553 24.7999 159.111 24.6972 159.609 24.4919C160.108 24.2866 160.533 23.9785 160.885 23.5679C161.237 23.1426 161.509 22.6072 161.699 21.9619C161.89 21.3166 161.985 20.5466 161.985 19.6519V18.7279C161.985 17.9065 161.883 17.1879 161.677 16.5719C161.487 15.9559 161.215 15.4425 160.863 15.0319C160.511 14.6212 160.086 14.3132 159.587 14.1079C159.089 13.9025 158.539 13.7999 157.937 13.7999C157.321 13.7999 156.764 13.9025 156.265 14.1079C155.767 14.2985 155.341 14.5992 154.989 15.0099C154.637 15.4205 154.366 15.9339 154.175 16.5499C153.985 17.1659 153.889 17.8919 153.889 18.7279V19.6519C153.889 20.5319 153.985 21.2945 154.175 21.9399C154.381 22.5852 154.659 23.1206 155.011 23.5459C155.363 23.9712 155.789 24.2866 156.287 24.4919C156.786 24.6972 157.336 24.7999 157.937 24.7999ZM136.93 26.9996L142.43 11.5996H145.51L151.01 26.9996H148.194L146.918 23.1496H140.868L139.57 26.9996H136.93ZM146.126 20.7296L143.948 14.1296H143.904L141.682 20.7296H146.126ZM124.398 11.5996V26.9996H129.568C131.915 26.9996 133.712 26.3763 134.958 25.1296C136.205 23.8683 136.828 22.0569 136.828 19.6956V18.6836C136.828 16.4103 136.205 14.6649 134.958 13.4476C133.726 12.2156 131.93 11.5996 129.568 11.5996H124.398ZM129.458 24.5796H127.038V14.0196H129.458C131.042 14.0196 132.201 14.3936 132.934 15.1416C133.682 15.8896 134.056 17.0703 134.056 18.6836V19.6956C134.056 21.4263 133.69 22.6729 132.956 23.4356C132.223 24.1983 131.057 24.5796 129.458 24.5796ZM116.032 26.9999C115.137 26.9999 114.441 26.8459 113.942 26.5379C113.458 26.2153 113.099 25.8486 112.864 25.4379C112.629 25.0273 112.49 24.6239 112.446 24.2279C112.417 23.8173 112.402 23.5313 112.402 23.3699V18.3319H110.422V15.9999H112.402V12.9199H114.954V15.9999H117.682V18.3319H114.954V23.0179C114.954 23.1353 114.961 23.2893 114.976 23.4799C114.991 23.6706 115.049 23.8539 115.152 24.0299C115.255 24.2059 115.409 24.3599 115.614 24.4919C115.819 24.6093 116.113 24.6679 116.494 24.6679H117.902V26.9999H116.032ZM99.5312 16.0003V27.0003H102.083V20.6203C102.083 19.8576 102.311 19.2489 102.765 18.7943C103.22 18.3396 103.829 18.1123 104.591 18.1123C105.325 18.1123 105.889 18.3249 106.285 18.7503C106.681 19.1609 106.879 19.7843 106.879 20.6203V27.0003H109.431V20.5103C109.431 18.9556 109.05 17.7823 108.287 16.9903C107.525 16.1836 106.476 15.7803 105.141 15.7803C104.452 15.7803 103.829 15.8976 103.271 16.1323C102.729 16.3669 102.23 16.7263 101.775 17.2103H101.731L101.511 16.0003H99.5312ZM92.7097 27.2203C91.8884 27.2203 91.1477 27.1029 90.4877 26.8683C89.8424 26.6189 89.2924 26.2596 88.8377 25.7903C88.383 25.3209 88.031 24.7489 87.7817 24.0743C87.547 23.3996 87.4297 22.6223 87.4297 21.7423V21.2583C87.4297 20.3929 87.547 19.6229 87.7817 18.9483C88.031 18.2589 88.3757 17.6796 88.8157 17.2103C89.2704 16.7409 89.813 16.3889 90.4437 16.1543C91.089 15.9049 91.8077 15.7803 92.5997 15.7803C93.3917 15.7803 94.103 15.9049 94.7337 16.1543C95.379 16.3889 95.9217 16.7483 96.3617 17.2323C96.8164 17.7016 97.161 18.2809 97.3957 18.9703C97.645 19.6596 97.7697 20.4589 97.7697 21.3683V22.2923H90.0037C90.077 23.2603 90.319 23.9643 90.7297 24.4043C91.1404 24.8443 91.7637 25.0643 92.5997 25.0643C93.2597 25.0643 93.7877 24.9543 94.1837 24.7343C94.5944 24.4996 94.873 24.1549 95.0197 23.7003H97.6597C97.4104 24.8443 96.853 25.7169 95.9877 26.3183C95.137 26.9196 94.0444 27.2203 92.7097 27.2203ZM92.5997 17.9363C91.8224 17.9363 91.2284 18.1343 90.8177 18.5303C90.407 18.9116 90.143 19.5349 90.0257 20.4003H95.1737C95.071 19.5349 94.8144 18.9116 94.4037 18.5303C93.993 18.1343 93.3917 17.9363 92.5997 17.9363ZM82.8013 26.5379C83.2999 26.8459 83.9966 26.9999 84.8913 26.9999H86.7612V24.6679H85.3532C84.9719 24.6679 84.6786 24.6093 84.4733 24.4919C84.2679 24.3599 84.1139 24.2059 84.0112 24.0299C83.9086 23.8539 83.8499 23.6706 83.8353 23.4799C83.8206 23.2893 83.8132 23.1353 83.8132 23.0179V18.3319H86.5412V15.9999H83.8132V12.9199H81.2612V15.9999H79.2812V18.3319H81.2612V23.3699C81.2612 23.5313 81.2759 23.8173 81.3053 24.2279C81.3492 24.6239 81.4886 25.0273 81.7233 25.4379C81.9579 25.8486 82.3172 26.2153 82.8013 26.5379ZM68.3828 27.0003V16.0003H70.3628L70.5828 17.2103H70.6268C71.0815 16.7263 71.5801 16.3669 72.1228 16.1323C72.6801 15.8976 73.3035 15.7803 73.9928 15.7803C75.3275 15.7803 76.3761 16.1836 77.1388 16.9903C77.9015 17.7823 78.2828 18.9556 78.2828 20.5103V27.0003H75.7308V20.6203C75.7308 19.7843 75.5328 19.1609 75.1368 18.7503C74.7408 18.3249 74.1761 18.1123 73.4428 18.1123C72.6801 18.1123 72.0715 18.3396 71.6168 18.7943C71.1621 19.2489 70.9348 19.8576 70.9348 20.6203V27.0003H68.3828ZM57.4783 25.7903C58.417 26.7436 59.7076 27.2203 61.3503 27.2203C62.1716 27.2203 62.905 27.0956 63.5503 26.8463C64.1956 26.5969 64.7456 26.2376 65.2003 25.7683C65.6696 25.2989 66.0216 24.7269 66.2563 24.0523C66.5056 23.3776 66.6303 22.6076 66.6303 21.7423V21.2583C66.6303 19.5129 66.161 18.1636 65.2223 17.2103C64.2983 16.2569 63.0076 15.7803 61.3503 15.7803C60.5436 15.7803 59.8103 15.9049 59.1503 16.1543C58.505 16.4036 57.9476 16.7629 57.4783 17.2323C57.0236 17.7016 56.6716 18.2736 56.4223 18.9483C56.1876 19.6229 56.0703 20.3929 56.0703 21.2583V21.7423C56.0703 23.4876 56.5396 24.8369 57.4783 25.7903ZM63.2423 24.1403C62.7876 24.6389 62.157 24.8883 61.3503 24.8883C60.5583 24.8883 59.9276 24.6316 59.4583 24.1183C58.989 23.5903 58.7543 22.7983 58.7543 21.7423V21.2583C58.7543 20.1729 58.9816 19.3809 59.4363 18.8823C59.9056 18.3689 60.5436 18.1123 61.3503 18.1123C62.1423 18.1123 62.773 18.3763 63.2423 18.9043C63.7116 19.4176 63.9463 20.2023 63.9463 21.2583V21.7423C63.9463 22.8276 63.7116 23.6269 63.2423 24.1403Z"
      fill="#1F1F1F"
    />
  </g>
  <defs>
    <clipPath id="clip0_3371_3682">
      <rect width="165" height="38" fill="#1F1F1F" />
    </clipPath>
  </defs>
</svg>
