<?xml version="1.0" encoding="UTF-8" standalone="no"?>
<svg
   version="1.1"
   width="1182"
   height="549"
   id="svg14"
   sodipodi:docname="CrossBar Logo Solid Black.svg"
   inkscape:version="1.4.2 (f4327f4, 2025-05-13)"
   xmlns:inkscape="http://www.inkscape.org/namespaces/inkscape"
   xmlns:sodipodi="http://sodipodi.sourceforge.net/DTD/sodipodi-0.dtd"
   xmlns="http://www.w3.org/2000/svg"
   xmlns:svg="http://www.w3.org/2000/svg">
  <defs
     id="defs14" />
  <sodipodi:namedview
     id="namedview14"
     pagecolor="#ffffff"
     bordercolor="#000000"
     borderopacity="0.25"
     inkscape:showpageshadow="2"
     inkscape:pageopacity="0.0"
     inkscape:pagecheckerboard="0"
     inkscape:deskcolor="#d1d1d1"
     inkscape:zoom="1.5414552"
     inkscape:cx="590.67563"
     inkscape:cy="274.7404"
     inkscape:window-width="1920"
     inkscape:window-height="1129"
     inkscape:window-x="-8"
     inkscape:window-y="-8"
     inkscape:window-maximized="1"
     inkscape:current-layer="svg14" />
  <path
     d="M0 0 C1.81176758 1.66064453 1.81176758 1.66064453 3.64453125 3.6328125 C4.32193359 4.35726562 4.99933594 5.08171875 5.69726562 5.828125 C6.74430664 6.96507812 6.74430664 6.96507812 7.8125 8.125 C8.84213867 9.22714844 8.84213867 9.22714844 9.89257812 10.3515625 C13.83679335 14.5905677 17.69067541 18.89522668 21.46362305 23.28735352 C22.9534047 25.00582966 22.9534047 25.00582966 24.57348633 26.43334961 C26.69579985 28.48519782 27.97613807 30.19183439 28.06459045 33.18757629 C27.1813238 41.20448393 25.88896217 49.13166989 24.49609375 57.07421875 C24.25051916 58.49332705 24.00533261 59.91250254 23.76051331 61.33174133 C23.12157747 65.02959683 22.47744735 68.7265283 21.83215332 72.42327881 C21.17201209 76.21066812 20.51689495 79.9989261 19.86132812 83.78710938 C18.57907628 91.19225524 17.29132422 98.59643019 16 106 C12.1082887 107.35020713 8.26524214 108.46562943 4.24169922 109.34448242 C2.58000198 109.7094709 2.58000198 109.7094709 0.88473511 110.08183289 C-0.2966806 110.33713272 -1.47809631 110.59243256 -2.6953125 110.85546875 C-3.92031464 111.12136307 -5.14531677 111.38725739 -6.40744019 111.66120911 C-8.99080674 112.22027071 -11.57447458 112.77767273 -14.15869141 113.33276367 C-17.46696749 114.04401141 -20.77265307 114.76661597 -24.07786751 115.49193859 C-27.2403279 116.18344626 -30.40548816 116.86237608 -33.5703125 117.54296875 C-34.75577667 117.80434128 -35.94124084 118.06571381 -37.16262817 118.33500671 C-38.26412201 118.56887589 -39.36561584 118.80274506 -40.50048828 119.04370117 C-41.46834259 119.25306808 -42.4361969 119.462435 -43.43338013 119.67814636 C-46.91110872 120.11425286 -49.00878535 119.75302725 -51.79931641 117.63305664 C-52.39405762 117.06449951 -52.98879883 116.49594238 -53.6015625 115.91015625 C-54.25640625 115.29076172 -54.91125 114.67136719 -55.5859375 114.03320312 C-56.25882813 113.38287109 -56.93171875 112.73253906 -57.625 112.0625 C-58.305625 111.41603516 -58.98625 110.76957031 -59.6875 110.10351562 C-62.15035871 107.75990601 -64.59599849 105.40400151 -67 103 C-73.71346982 102.84185087 -80.57280519 104.60289931 -87.09960938 106.02539062 C-88.53075577 106.3304377 -88.53075577 106.3304377 -89.99081421 106.64164734 C-93.1096256 107.30786568 -96.22669339 107.98187342 -99.34375 108.65625 C-101.52176498 109.1236494 -103.69986699 109.59064343 -105.87805176 110.05725098 C-110.42431951 111.03234173 -114.96978079 112.0110803 -119.51464844 112.99267578 C-125.34889631 114.25262397 -131.1846779 115.50528882 -137.02101898 116.75550079 C-141.50975547 117.71752793 -145.99787725 118.68239604 -150.48579407 119.64823914 C-152.63871654 120.11140071 -154.79178243 120.57389613 -156.94499207 121.03572083 C-159.94244499 121.67926588 -162.93910045 122.32639635 -165.93554688 122.97460938 C-166.82901825 123.16580856 -167.72248962 123.35700775 -168.64303589 123.55400085 C-172.93734125 124.42442136 -172.93734125 124.42442136 -177 126 C-178.03593866 128.40958557 -178.03593866 128.40958557 -178.9453125 131.34765625 C-179.29980469 132.42724609 -179.65429688 133.50683594 -180.01953125 134.61914062 C-180.38433594 135.75544922 -180.74914062 136.89175781 -181.125 138.0625 C-181.68380859 139.77276367 -181.68380859 139.77276367 -182.25390625 141.51757812 C-183.17599135 144.34294145 -184.09101586 147.17039996 -185 150 C-193.062618 143.21241417 -200.54064329 135.94205012 -207.32421875 127.86328125 C-209.59962423 125.33328495 -212.17065952 123.17205177 -214.8125 121.03125 C-216.71338287 117.77973984 -215.70561767 114.54176817 -215 111 C-213.98249198 107.26105426 -212.77247449 103.5958402 -211.54296875 99.921875 C-211.19873367 98.87404846 -210.8544986 97.82622192 -210.49983215 96.74664307 C-209.4025735 93.4121228 -208.29520069 90.0810642 -207.1875 86.75 C-206.45441038 84.5275639 -205.72198222 82.3049095 -204.99023438 80.08203125 C-201.09793136 68.27201687 -201.09793136 68.27201687 -199.90124512 64.89646912 C-198.91829034 61.98716486 -198.91829034 61.98716486 -198.50500488 58.8184967 C-197.81037504 55.25196241 -197.1030073 52.97946582 -195 50 C-189.28471044 46.8914462 -183.23861246 45.53420902 -176.9453125 44.02734375 C-175.07762288 43.54022051 -173.21113904 43.04845372 -171.34580994 42.55236816 C-166.32737665 41.23064304 -161.29519988 39.97103046 -156.25831985 38.72175217 C-151.01844203 37.4102405 -145.79393606 36.04032175 -140.56811523 34.67407227 C-133.1519372 32.74009123 -125.73187115 30.82276484 -118.30532742 28.92896938 C-106.28905712 25.86450386 -94.30324687 22.70208727 -82.33984375 19.4375 C-81.54693436 19.22114962 -80.75402496 19.00479923 -79.93708801 18.78189278 C-76.09752132 17.73339785 -72.25862201 16.68248798 -68.42010498 15.63015747 C-64.20732392 14.47590645 -59.99204166 13.33103763 -55.77587891 12.18920898 C-55.11421848 12.00986156 -54.45255806 11.83051413 -53.77084732 11.64573193 C-50.56721823 10.77751877 -47.36312027 9.9111312 -44.1583252 9.04722595 C-38.37408622 7.48294676 -32.59899868 5.8952679 -26.84346485 4.22864056 C-24.14632206 3.44803689 -21.44644901 2.6771055 -18.74651909 1.90620613 C-16.85472712 1.36095283 -14.96745255 0.80010258 -13.08033752 0.23887634 C-11.94579636 -0.08479416 -10.81125519 -0.40846466 -9.64233398 -0.74194336 C-8.64604477 -1.0338707 -7.64975555 -1.32579803 -6.62327576 -1.62657166 C-3.60122106 -2.05676695 -2.49887367 -1.67825328 0 0 Z "
     fill="#FFB387"
     transform="translate(344,171)"
     id="path1"
     style="fill:#000000;fill-opacity:1" />
  <path
     d="M0 0 C2.0546875 1.50390625 2.0546875 1.50390625 3.875 3.5625 C7.18834514 7.1498333 10.62886389 10.37930572 14.3359375 13.5546875 C15.60166464 14.65402798 16.8145434 15.8145434 18 17 C20.11056953 17.05819548 20.11056953 17.05819548 22.5 16.6875 C27.66027111 16.04246611 32.82429552 15.50502405 38 15 C35.3292719 30.22408726 32.57645626 45.43188021 29.72024536 60.6222229 C29.40661646 62.29144348 29.09401548 63.96085752 28.78244019 65.63046265 C28.34241451 67.98600446 27.8983711 70.34075262 27.453125 72.6953125 C27.32102127 73.40554062 27.18891754 74.11576874 27.05281067 74.84751892 C26.11455102 79.77089797 26.11455102 79.77089797 25 82 C22.41460305 82.64061972 19.89108829 83.15259109 17.27075195 83.60400391 C16.46094376 83.75059952 15.65113556 83.89719513 14.81678772 84.04823303 C12.12542949 84.53304314 9.43199251 85.00501584 6.73828125 85.4765625 C4.8706727 85.80938664 3.0031762 86.1428401 1.13578796 86.47689819 C-2.78669303 87.17664067 -6.71017964 87.87034214 -10.63452148 88.55957031 C-15.6588536 89.44224381 -20.68090245 90.33717398 -25.70230389 91.23635292 C-29.56294245 91.92671187 -33.42450409 92.61178346 -37.28638649 93.29514694 C-39.13773931 93.62314801 -40.98885581 93.95248591 -42.8397274 94.28319168 C-45.43353169 94.74555815 -48.02844356 95.2011047 -50.6237793 95.65478516 C-51.38609863 95.79190414 -52.14841797 95.92902313 -52.93383789 96.07029724 C-63.5503211 97.90502391 -63.5503211 97.90502391 -66.85522461 95.84179688 C-67.36577393 95.30619141 -67.87632324 94.77058594 -68.40234375 94.21875 C-68.97847412 93.62843994 -69.55460449 93.03812988 -70.14819336 92.42993164 C-70.73866455 91.7930542 -71.32913574 91.15617676 -71.9375 90.5 C-72.56084229 89.85216553 -73.18418457 89.20433105 -73.82641602 88.53686523 C-76.77835493 85.44861746 -79.66051361 82.30954919 -82.4375 79.0625 C-84.78760917 76.33749247 -87.20678902 73.72907545 -89.75 71.18359375 C-90.43521729 70.4970874 -91.12043457 69.81058105 -91.82641602 69.10327148 C-94.87824967 66.06273177 -97.93465384 63.02691848 -101 60 C-99.63243269 55.46458674 -98.26314279 50.92969826 -96.89233398 46.39526367 C-96.42735524 44.85634024 -95.96282713 43.31728057 -95.4987793 41.77807617 C-95.27424072 41.03340088 -95.04970215 40.28872559 -94.81835938 39.52148438 C-94.59737579 38.78610443 -94.37639221 38.05072449 -94.14871216 37.2930603 C-93.70431561 35.83306837 -93.25079039 34.375823 -92.78805542 32.92153931 C-91.85313643 29.97033012 -91.01954601 27.13301466 -90.56884766 24.06591797 C-90.11879195 21.33818903 -89.77146507 20.13352992 -88 18 C-85.56863255 17.14267692 -83.35323114 16.5217467 -80.85083008 15.9855957 C-80.13689653 15.82048367 -79.42296299 15.65537163 -78.6873951 15.4852562 C-76.46140274 14.97481564 -74.23145933 14.48591738 -72 14 C-70.68567808 13.70516933 -69.37150806 13.40966043 -68.05751038 13.11338806 C-64.11287305 12.23689087 -60.16341041 11.38710273 -56.2109375 10.546875 C-54.76842795 10.23877795 -53.32593357 9.9306099 -51.88345337 9.62237549 C-48.89750524 8.98513925 -45.91107182 8.3502379 -42.92431641 7.71679688 C-39.10812954 6.90702264 -35.29377701 6.08892508 -31.47978783 5.26887131 C-28.51749988 4.63331062 -25.55405526 4.00328225 -22.59025955 3.37479401 C-21.18250198 3.0753559 -19.77516103 2.77395167 -18.36826706 2.47048187 C-16.40869819 2.04841479 -14.44729913 1.6348724 -12.48583984 1.22167969 C-11.37493988 0.98503601 -10.26403992 0.74839233 -9.11947632 0.50457764 C-5.99445832 -0.00089637 -3.1587378 -0.19760475 0 0 Z "
     fill="#545759"
     transform="translate(269,289)"
     id="path2"
     style="fill:#000000;fill-opacity:1" />
  <path
     d="M0 0 C3.11836333 1.37352928 5.11865428 2.91838973 7.42578125 5.4140625 C8.05806641 6.09339844 8.69035156 6.77273437 9.34179688 7.47265625 C9.99212891 8.18292969 10.64246094 8.89320313 11.3125 9.625 C12.2705957 10.65560547 12.2705957 10.65560547 13.24804688 11.70703125 C17.06195261 15.82620401 20.78567218 20.01366631 24.44604492 24.26977539 C25.95082214 26.00323122 25.95082214 26.00323122 27.57543945 27.43530273 C29.69714271 29.48646436 30.97617345 31.19303253 31.06459045 34.18757629 C30.1813238 42.20448393 28.88896217 50.13166989 27.49609375 58.07421875 C27.25051916 59.49332705 27.00533261 60.91250254 26.76051331 62.33174133 C26.12157747 66.02959683 25.47744735 69.7265283 24.83215332 73.42327881 C24.17201209 77.21066812 23.51689495 80.9989261 22.86132812 84.78710938 C21.57907628 92.19225524 20.29132422 99.59643019 19 107 C15.1082887 108.35020713 11.26524214 109.46562943 7.24169922 110.34448242 C5.58000198 110.7094709 5.58000198 110.7094709 3.88473511 111.08183289 C2.7033194 111.33713272 1.52190369 111.59243256 0.3046875 111.85546875 C-0.92031464 112.12136307 -2.14531677 112.38725739 -3.40744019 112.66120911 C-5.99080674 113.22027071 -8.57447458 113.77767273 -11.15869141 114.33276367 C-14.46696749 115.04401141 -17.77265307 115.76661597 -21.07786751 116.49193859 C-24.2403279 117.18344626 -27.40548816 117.86237608 -30.5703125 118.54296875 C-31.75577667 118.80434128 -32.94124084 119.06571381 -34.16262817 119.33500671 C-35.26412201 119.56887589 -36.36561584 119.80274506 -37.50048828 120.04370117 C-38.46834259 120.25306808 -39.4361969 120.462435 -40.43338013 120.67814636 C-43.91110872 121.11425286 -46.00878535 120.75302725 -48.79931641 118.63305664 C-49.39405762 118.06449951 -49.98879883 117.49594238 -50.6015625 116.91015625 C-51.25640625 116.29076172 -51.91125 115.67136719 -52.5859375 115.03320312 C-53.25882813 114.38287109 -53.93171875 113.73253906 -54.625 113.0625 C-55.305625 112.41603516 -55.98625 111.76957031 -56.6875 111.10351562 C-59.15035871 108.75990601 -61.59599849 106.40400151 -64 104 C-70.71346982 103.84185087 -77.57280519 105.60289931 -84.09960938 107.02539062 C-85.53075577 107.3304377 -85.53075577 107.3304377 -86.99081421 107.64164734 C-90.1096256 108.30786568 -93.22669339 108.98187342 -96.34375 109.65625 C-98.52176498 110.1236494 -100.69986699 110.59064343 -102.87805176 111.05725098 C-107.42431951 112.03234173 -111.96978079 113.0110803 -116.51464844 113.99267578 C-122.34889631 115.25262397 -128.1846779 116.50528882 -134.02101898 117.75550079 C-138.50975547 118.71752793 -142.99787725 119.68239604 -147.48579407 120.64823914 C-149.63871654 121.11140071 -151.79178243 121.57389613 -153.94499207 122.03572083 C-156.94244499 122.67926588 -159.93910045 123.32639635 -162.93554688 123.97460938 C-163.82901825 124.16580856 -164.72248962 124.35700775 -165.64303589 124.55400085 C-169.93734125 125.42442136 -169.93734125 125.42442136 -174 127 C-175.03593866 129.40958557 -175.03593866 129.40958557 -175.9453125 132.34765625 C-176.29980469 133.42724609 -176.65429688 134.50683594 -177.01953125 135.61914062 C-177.38433594 136.75544922 -177.74914062 137.89175781 -178.125 139.0625 C-178.68380859 140.77276367 -178.68380859 140.77276367 -179.25390625 142.51757812 C-180.17599135 145.34294145 -181.09101586 148.17039996 -182 151 C-190.06587598 144.20967141 -197.48684665 136.91707643 -204.328125 128.88671875 C-206.65366969 126.2623307 -209.16742444 123.85276371 -211.71484375 121.4453125 C-213 120 -213 120 -213 118 C-196.24121396 113.57609685 -179.2575597 110.13641448 -162.29446411 106.60110474 C-158.34181887 105.77728413 -154.38954294 104.9517049 -150.4375 104.125 C-149.63650879 103.9574823 -148.83551758 103.7899646 -148.01025391 103.61737061 C-135.52646757 101.00156821 -123.08403529 98.23193576 -110.65625 95.36276245 C-100.36954582 92.98808703 -90.07157998 90.69388633 -79.74169922 88.51269531 C-71.57888198 86.78284214 -63.43063682 84.99317703 -55.28515625 83.18359375 C-52.99682882 82.6761762 -50.70849872 82.1687707 -48.42016602 81.66137695 C-44.96907676 80.89596453 -41.51834178 80.12910109 -38.068573 79.35775757 C-34.82777428 78.6332489 -31.58587851 77.91384325 -28.34375 77.1953125 C-27.3595961 76.97374985 -26.3754422 76.75218719 -25.36146545 76.52391052 C-23.99434669 76.22227745 -23.99434669 76.22227745 -22.59960938 75.91455078 C-21.80470093 75.73723419 -21.00979248 75.5599176 -20.1907959 75.37722778 C-18 75 -18 75 -14 75 C-13.87995605 73.75758545 -13.75991211 72.5151709 -13.63623047 71.23510742 C-12.9975447 65.50905299 -11.92244218 59.89057612 -10.8203125 54.23828125 C-10.60688202 53.13002487 -10.39345154 52.02176849 -10.17355347 50.87992859 C-9.72299737 48.54406124 -9.27074732 46.20852006 -8.81689453 43.87329102 C-8.13061275 40.34138566 -7.44960896 36.80849526 -6.76953125 33.27539062 C-4.62381821 22.15897142 -2.46153089 11.05164253 0 0 Z "
     fill="#FF6912"
     transform="translate(341,170)"
     id="path3"
     style="fill:#000000;fill-opacity:1" />
  <path
     d="M0 0 C11.79275188 12.41915671 14.11326255 26.39149036 13.90625 42.8125 C13.73495569 48.49819433 12.84492216 53.5016626 10.69140625 58.78125 C10.35109375 59.626875 10.01078125 60.4725 9.66015625 61.34375 C4.3692636 73.06951208 -4.64377375 81.45484886 -16.65625 86.06640625 C-34.18986959 91.68280105 -51.7430314 91.2522762 -68.30859375 82.78125 C-79.04055008 76.37188719 -86.7925144 66.41505454 -90.27734375 54.45703125 C-93.81868235 39.55389796 -93.43297107 23.85824639 -85.87109375 10.15234375 C-76.83882532 -3.5541236 -64.82052696 -10.25499263 -49.046875 -13.71484375 C-31.81861576 -16.37291803 -13.00330861 -11.82667511 0 0 Z M-61.10546875 15.60546875 C-68.51517156 24.94096065 -69.32916961 34.27970408 -68.30859375 45.78125 C-66.78235776 52.4294305 -63.59098732 58.38298586 -58.30859375 62.78125 C-49.89174163 67.90860453 -41.70001324 70.38962288 -31.8671875 68.25 C-24.01519821 65.80538743 -17.87131508 61.67659853 -13.30859375 54.78125 C-8.56055051 45.49032588 -7.69339831 36.06515683 -10.80859375 26.09375 C-13.8732299 18.65259838 -18.62054752 12.710879 -25.99609375 9.28125 C-37.91536294 4.79878979 -51.84126943 6.20029248 -61.10546875 15.60546875 Z "
     fill="#535658"
     transform="translate(615.30859375,332.21875)"
     id="path4"
     style="fill:#000000;fill-opacity:1" />
  <path
     d="M0 0 C57.8 0 57.8 0 66 7 C72.27570095 13.56096009 73.49523652 19.16022899 73.30859375 28.03125 C72.65320996 34.33620793 70.0653977 38.29545777 65.375 42.4375 C63.59965057 43.86010533 62.03627518 44.98186241 60 46 C60.66386719 46.36351562 61.32773437 46.72703125 62.01171875 47.1015625 C69.29630021 51.24898844 73.98412335 54.55450035 76.875 62.6875 C78.67180197 69.45613468 78.21898569 75.86546538 75.6875 82.375 C75.130625 83.24125 74.57375 84.1075 74 85 C73.46375 85.845625 72.9275 86.69125 72.375 87.5625 C65.39788669 94.72322156 55.01735711 98.08376105 45.18310547 98.34057617 C43.0777398 98.33983814 40.97232843 98.32373905 38.8671875 98.29296875 C37.37844116 98.28843689 37.37844116 98.28843689 35.85961914 98.28381348 C32.19797167 98.26827073 28.53647395 98.22638839 24.875 98.1875 C16.66625 98.125625 8.4575 98.06375 0 98 C0 65.66 0 33.32 0 0 Z M23 19 C23 25.6 23 32.2 23 39 C25.805 39.0825 28.61 39.165 31.5 39.25 C32.36689453 39.28641602 33.23378906 39.32283203 34.12695312 39.36035156 C39.75939328 39.4395019 44.42723818 38.45905597 49 35 C51.00803914 30.98392172 51.30612673 29.06123933 50.0625 24.75 C47.53307468 21.37743291 44.96600524 20.11478414 41 19 C37.83703078 18.66813627 34.73793722 18.71349575 31.5625 18.8125 C27.3240625 18.9053125 27.3240625 18.9053125 23 19 Z M23 58 C23 64.93 23 71.86 23 79 C26.70877584 79.08114826 30.41576511 79.14057594 34.125 79.1875 C35.69507813 79.22520508 35.69507813 79.22520508 37.296875 79.26367188 C43.95441809 79.3268764 48.79063752 78.99540499 53.875 74.25 C55.53780754 70.92438491 55.51447272 68.66561813 55 65 C51.83246424 60.80767326 49.02472851 59.25057417 44 58 C40.36942793 57.76834594 36.76095282 57.81144816 33.125 57.875 C29.78375 57.91625 26.4425 57.9575 23 58 Z "
     fill="#545758"
     transform="translate(789,321)"
     id="path5"
     style="fill:#000000;fill-opacity:1" />
  <path
     d="M0 0 C59.08577878 0 59.08577878 0 69 9 C74.77323129 15.83448704 76.48480228 23.63382857 76.2421875 32.421875 C75.53326301 39.96849056 73.28793464 45.76474366 68.05078125 51.3046875 C64.72562561 54.05348283 61.05227244 55.60329839 57 57 C58.51705394 61.14917412 60.56012242 64.87060999 62.80859375 68.65625 C63.1759816 69.2810022 63.54336945 69.90575439 63.92189026 70.54943848 C65.09050669 72.5348975 66.26393887 74.51746053 67.4375 76.5 C68.22232026 77.83184565 69.00682854 79.16387519 69.79101562 80.49609375 C73.70961162 87.17929478 73.70961162 87.17929478 77.74633789 93.79101562 C79 96 79 96 79 98 C70.09 98 61.18 98 52 98 C49.29034346 92.76914048 46.58318051 87.53714484 43.88232422 82.30175781 C42.96223426 80.52007885 42.0406888 78.73915077 41.11767578 76.95898438 C39.79338934 74.40429217 38.47431209 71.84697042 37.15625 69.2890625 C36.53284729 68.09055161 36.53284729 68.09055161 35.89685059 66.86782837 C35.5164563 66.12721161 35.13606201 65.38659485 34.74414062 64.62353516 C34.40660767 63.97067535 34.06907471 63.31781555 33.72131348 62.64517212 C33 61 33 61 33 59 C29.7 59 26.4 59 23 59 C23 71.87 23 84.74 23 98 C15.41 98 7.82 98 0 98 C0 65.66 0 33.32 0 0 Z M23 19 C23 25.93 23 32.86 23 40 C28.011875 40.0928125 28.011875 40.0928125 33.125 40.1875 C34.16672363 40.21481201 35.20844727 40.24212402 36.28173828 40.27026367 C41.59187178 40.31775765 45.46842359 40.10550524 50 37 C52.37929611 33.43105583 52.53495216 31.41338565 52.453125 27.2265625 C51.92193278 24.61639383 51.24664605 23.72437613 49.25 22 C45.134559 19.46742092 42.22774729 18.87008279 37.453125 18.90234375 C36.69161133 18.90484131 35.93009766 18.90733887 35.14550781 18.90991211 C34.18999023 18.91901611 33.23447266 18.92812012 32.25 18.9375 C29.1975 18.958125 26.145 18.97875 23 19 Z "
     fill="#545758"
     transform="translate(974,321)"
     id="path6"
     style="fill:#000000;fill-opacity:1" />
  <path
     d="M0 0 C57.73901809 0 57.73901809 0 67 8 C73.93555247 15.35354336 75.50323546 22.68736155 75.30859375 32.6484375 C74.5753988 40.61149146 71.88445602 46.87650023 66.26953125 52.5625 C62.78276092 54.77098792 58.93446696 55.81887459 55 57 C55.54938232 57.92224365 56.09876465 58.8444873 56.66479492 59.79467773 C58.72553371 63.25482393 60.78452333 66.71600833 62.84301758 70.17749023 C63.72991915 71.66832877 64.61727898 73.15889481 65.50512695 74.64916992 C66.78981612 76.80574155 68.07278963 78.96332613 69.35546875 81.12109375 C69.74526413 81.77460312 70.13505951 82.42811249 70.53666687 83.10142517 C73.45773625 88.02078484 76.21820417 92.9927675 79 98 C70.09 98 61.18 98 52 98 C46.95001805 89.35676167 42.15030354 80.61524483 37.5 71.75 C36.95956055 70.72575928 36.41912109 69.70151855 35.86230469 68.64624023 C35.36118164 67.68532471 34.86005859 66.72440918 34.34375 65.734375 C33.89193359 64.87038086 33.44011719 64.00638672 32.97460938 63.11621094 C32 61 32 61 32 59 C28.7 59 25.4 59 22 59 C22 71.87 22 84.74 22 98 C14.74 98 7.48 98 0 98 C0 65.66 0 33.32 0 0 Z M22 19 C22 25.93 22 32.86 22 40 C27.011875 40.0928125 27.011875 40.0928125 32.125 40.1875 C33.16672363 40.21481201 34.20844727 40.24212402 35.28173828 40.27026367 C40.61285988 40.31794537 44.41938846 40.05618402 49 37 C51.58428621 33.99889343 51.99143971 32.47937614 52.0625 28.5 C50.63547281 23.79920454 49.05498122 22.70332081 45 20 C42.10427775 19.05235606 39.48863404 18.88183355 36.453125 18.90234375 C35.69161133 18.90484131 34.93009766 18.90733887 34.14550781 18.90991211 C33.18999023 18.91901611 32.23447266 18.92812012 31.25 18.9375 C28.1975 18.958125 25.145 18.97875 22 19 Z "
     fill="#535658"
     transform="translate(443,321)"
     id="path7"
     style="fill:#000000;fill-opacity:1" />
  <path
     d="M0 0 C6.27 0 12.54 0 19 0 C23.43318753 8.58036295 27.26317955 17.3783068 31.0625 26.25 C32.46996494 29.52663974 33.87937265 32.80244195 35.2890625 36.078125 C35.65960251 36.939823 36.03014252 37.801521 36.41191101 38.68933105 C39.4014287 45.63282887 42.4269004 52.56023248 45.4609375 59.484375 C46.38021447 61.58557369 47.29940438 63.68681048 48.21850586 65.78808594 C49.57285031 68.88437072 50.92868135 71.97995467 52.2895813 75.07336426 C53.5607928 77.96364711 54.82589987 80.85653313 56.08984375 83.75 C56.66217239 85.0445108 56.66217239 85.0445108 57.24606323 86.36517334 C57.7699614 87.56886566 57.7699614 87.56886566 58.30444336 88.796875 C58.7616703 89.83859863 58.7616703 89.83859863 59.22813416 90.90136719 C60 93 60 93 61 98 C52.75 98 44.5 98 36 98 C31 87 31 87 28 78 C15.79 78.33 3.58 78.66 -9 79 C-11.64 85.27 -14.28 91.54 -17 98 C-25.25 98 -33.5 98 -42 98 C-40.82849233 94.485477 -39.73883053 91.22427774 -38.28271484 87.86694336 C-37.95354065 87.10458374 -37.62436646 86.34222412 -37.28521729 85.5567627 C-36.75344879 84.33563782 -36.75344879 84.33563782 -36.2109375 83.08984375 C-35.64726471 81.78714539 -35.64726471 81.78714539 -35.07220459 80.45812988 C-33.84216679 77.61688921 -32.60862256 74.77718584 -31.375 71.9375 C-30.52043886 69.96567658 -29.6661119 67.99375165 -28.81201172 66.02172852 C-27.0652291 61.9892675 -25.31719299 57.95735315 -23.56835938 53.92578125 C-21.15913793 48.36986775 -18.75785205 42.81055877 -16.359375 37.25 C-15.63625185 35.5742909 -14.9131078 33.89859082 -14.18994141 32.22290039 C-13.17007684 29.8596972 -12.1503963 27.49641608 -11.13153076 25.13278198 C-7.50255626 16.71611544 -3.82647565 8.32949547 0 0 Z M8 32 C4.7 40.58 1.4 49.16 -2 58 C5.26 58 12.52 58 20 58 C16.7 49.42 13.4 40.84 10 32 C9.34 32 8.68 32 8 32 Z "
     fill="#535658"
     transform="translate(907,321)"
     id="path8"
     style="fill:#000000;fill-opacity:1" />
  <path
     d="M0 0 C-1.37247689 4.20645619 -3.23671869 6.54041584 -6.4375 9.5625 C-9.25056914 12.23653771 -11.76058315 14.8244925 -14 18 C-16.27245034 16.86377483 -18.48880752 15.71580958 -20.6875 14.4375 C-26.37869212 11.96773738 -31.51353589 11.19449468 -37.4375 13.3125 C-40.96146145 14.73723719 -40.96146145 14.73723719 -43 17 C-43.50031206 20.41571853 -43.50031206 20.41571853 -43 24 C-40.31728265 27.3156878 -37.88500884 28.69001121 -33.859375 29.96484375 C-32.87066406 30.29033203 -31.88195312 30.61582031 -30.86328125 30.95117188 C-29.83589844 31.27666016 -28.80851563 31.60214844 -27.75 31.9375 C-10.36826202 37.46201417 -10.36826202 37.46201417 -4.625 44.5 C-3.93277344 45.31984375 -3.93277344 45.31984375 -3.2265625 46.15625 C1.3863113 53.09025138 1.07500818 61.98429795 0 70 C-2.66480292 78.66772195 -7.24030323 84.72123524 -15.05859375 89.171875 C-28.25381258 95.66364041 -43.20984922 95.33404739 -57 91 C-68.06113537 85.87772926 -68.06113537 85.87772926 -71 80 C-63.575 72.08 -63.575 72.08 -56 64 C-52.46187474 65.76906263 -49.29182432 67.7122172 -46 69.87890625 C-41.29916884 72.51394247 -36.05000358 72.7500913 -30.83984375 71.46875 C-27.77591855 70.44558804 -25.56950402 69.66062466 -23.4375 67.1875 C-22.81373516 64.0686758 -23.04882189 62.04376995 -24 59 C-28.97920537 53.87676803 -35.94763296 52.36736185 -42.54492188 50.17578125 C-52.25047175 46.82719978 -60.34470398 43.14056959 -65.94140625 34.24609375 C-69.48392913 26.72967067 -68.59893518 18.085362 -66.03125 10.41796875 C-62.42925259 1.97237635 -56.03663406 -3.33095282 -47.73828125 -7 C-31.99992316 -12.71305145 -13.08762441 -10.70805634 0 0 Z "
     fill="#535658"
     transform="translate(777,328)"
     id="path9"
     style="fill:#000000;fill-opacity:1" />
  <path
     d="M0 0 C-1.97902779 4.28508106 -4.75988906 7.31168139 -7.9375 10.75 C-8.74477539 11.65298828 -8.74477539 11.65298828 -9.56835938 12.57421875 C-10.98144506 14.11101477 -12.48583763 15.56268812 -14 17 C-17 17 -17 17 -18.75 15.625 C-24.00710966 11.82819858 -29.48409536 11.64287108 -35.69140625 12.46484375 C-39.03110026 13.23901986 -40.80238475 14.37703986 -43 17 C-44.32908167 19.89072953 -44.32908167 19.89072953 -44 23 C-40.20054894 28.69917658 -34.25850308 29.94342334 -28 32 C-7.8372596 38.68708904 -7.8372596 38.68708904 -2.0625 48.1875 C1.15239777 56.6975235 1.34096485 66.50140427 -2.03515625 75.01171875 C-6.18760899 83.56879748 -12.65225088 88.64294528 -21.625 91.8125 C-35.44470407 95.87009878 -50.40106065 94.79913839 -63.1875 88 C-66.19772415 86.2669774 -68.65431198 84.56726768 -71 82 C-69.62752311 77.79354381 -67.76328131 75.45958416 -64.5625 72.4375 C-61.74943086 69.76346229 -59.23941685 67.1755075 -57 64 C-53.25598213 64.43200206 -51.39666689 66.38631472 -48.6328125 68.7890625 C-44.09469273 72.15465372 -38.44249439 72.485937 -33 72 C-29.07220924 70.75619959 -26.68801133 69.77140664 -23.9375 66.6875 C-22.6660305 63.04262077 -23.41907854 61.47173946 -25 58 C-27.21573915 56.19233542 -27.21573915 56.19233542 -30.0625 55 C-31.13113281 54.505 -32.19976563 54.01 -33.30078125 53.5 C-37.40454731 51.8359597 -41.55399441 50.40936989 -45.75 49 C-55.34385504 45.75500413 -61.6314609 41.78488216 -67 33 C-69.4396925 25.74308028 -68.97047305 16.19888391 -66.15234375 9.12109375 C-61.38940091 0.35404981 -54.26438599 -4.65578262 -45 -8 C-29.56413085 -12.06603383 -12.58119036 -10.2937012 0 0 Z "
     fill="#535658"
     transform="translate(703,328)"
     id="path10"
     style="fill:#000000;fill-opacity:1" />
  <path
     d="M0 0 C1.59439256 1.44071617 3.12012849 2.92738085 4.62109375 4.46484375 C3.00731907 8.85556836 -0.28698967 11.34115559 -3.75390625 14.27734375 C-4.62015625 15.04981445 -4.62015625 15.04981445 -5.50390625 15.83789062 C-7.21484375 17.296875 -7.21484375 17.296875 -10.37890625 19.46484375 C-13.54284593 19.02204756 -15.40524428 17.84916279 -17.94140625 15.96484375 C-23.63643797 12.33016673 -29.41693493 11.90302802 -36.0234375 12.83984375 C-43.42888716 14.65992354 -48.88529903 18.48871881 -52.94921875 24.96875 C-57.63148817 33.94532937 -58.86051318 42.87215137 -56.12890625 52.71484375 C-54.76367051 56.85605883 -52.94260406 59.96112341 -50.37890625 63.46484375 C-50.04890625 64.45484375 -49.71890625 65.44484375 -49.37890625 66.46484375 C-47.57866766 67.59227135 -47.57866766 67.59227135 -45.37890625 68.46484375 C-44.63253906 68.81804687 -43.88617188 69.17125 -43.1171875 69.53515625 C-36.56016947 72.38603365 -31.057559 73.86922856 -24.0625 71.76953125 C-18.28692561 69.44366542 -15.46042122 66.82042801 -10.37890625 62.46484375 C-4.43890625 67.08484375 1.50109375 71.70484375 7.62109375 76.46484375 C-0.25145154 86.96157081 -8.10549042 91.61016058 -20.81640625 94.15234375 C-37.35855671 95.60340958 -53.20327341 92.48161584 -66.25390625 81.71484375 C-75.17757009 73.22687416 -81.14777976 60.58003855 -81.58203125 48.2421875 C-81.84141986 32.35053088 -79.32097779 20.49228042 -70.12890625 7.21484375 C-52.37653843 -10.53752407 -20.53963141 -16.65256138 0 0 Z "
     fill="#535658"
     transform="translate(428.37890625,327.53515625)"
     id="path11"
     style="fill:#000000;fill-opacity:1" />
  <path
     d="M0 0 C1.46600342 1.70307922 1.46600342 1.70307922 2.68457031 3.3815918 C3.45542969 4.18081055 4.22628906 4.9800293 5.02050781 5.8034668 C5.69339844 6.57174805 6.36628906 7.3400293 7.05957031 8.1315918 C8.19072266 9.41549805 8.19072266 9.41549805 9.34472656 10.7253418 C10.116875 11.6019043 10.88902344 12.4784668 11.68457031 13.3815918 C13.28827066 15.13201914 14.89242644 16.88202935 16.49707031 18.6315918 C19.58951667 22.05923338 22.29572641 25.43480622 24.68457031 29.3815918 C18.36963737 31.56513813 12.01488134 33.45348319 5.5625 35.18481445 C4.59386017 35.44699265 3.62522034 35.70917084 2.62722778 35.97929382 C-0.54566909 36.83735298 -3.71957847 37.6915971 -6.89355469 38.5456543 C-9.11078811 39.14413243 -11.32797077 39.7427987 -13.54510498 40.34164429 C-18.17773478 41.59230235 -22.8108472 42.84115108 -27.44433594 44.08862305 C-33.38233776 45.68739429 -39.31930375 47.28997286 -45.25593948 48.89380836 C-49.82804571 50.12868683 -54.40059452 51.36191951 -58.97328949 52.59461594 C-61.1630672 53.18506963 -63.3527297 53.77595075 -65.54227448 54.36726761 C-68.59806212 55.19218334 -71.65441509 56.01496978 -74.7109375 56.8371582 C-75.61389557 57.08131973 -76.51685364 57.32548126 -77.44717407 57.57704163 C-81.38612355 58.63440458 -85.2976202 59.66045147 -89.31542969 60.3815918 C-88.71170046 55.25072492 -87.58547597 50.50285419 -85.98730469 45.5847168 C-85.75642151 44.86926697 -85.52553833 44.15381714 -85.28765869 43.41668701 C-84.80008752 41.91643334 -84.30913209 40.41727566 -83.81494141 38.91918945 C-83.06468227 36.6293106 -82.34044272 34.33215786 -81.61621094 32.03393555 C-81.13732471 30.57117692 -80.65690839 29.10891815 -80.17480469 27.6472168 C-79.9631366 26.96282532 -79.75146851 26.27843384 -79.53338623 25.57330322 C-77.98580865 21.01633117 -76.53178245 19.53127445 -72.31542969 17.3815918 C-70.10416884 16.5632826 -67.86757188 15.81191508 -65.61669922 15.10986328 C-64.96397034 14.90471603 -64.31124146 14.69956879 -63.63873291 14.48820496 C-61.49446574 13.81773765 -59.3469895 13.15864563 -57.19824219 12.50268555 C-56.46135036 12.27729662 -55.72445854 12.05190769 -54.96523666 11.8196888 C-51.06958868 10.63076425 -47.17092244 9.45232024 -43.27001953 8.28076172 C-40.04720376 7.31057348 -36.83205188 6.31936006 -33.62158203 5.30908203 C-29.73497117 4.08608707 -25.83891419 2.89982209 -21.93325424 1.73915291 C-20.45028697 1.29196447 -18.97106691 0.8321442 -17.49603653 0.35943413 C-4.50219529 -3.78565783 -4.50219529 -3.78565783 0 0 Z "
     fill="#A8AAAB"
     transform="translate(307.3154296875,129.618408203125)"
     id="path12"
     style="fill:#000000;fill-opacity:1" />
  <path
     d="M0 0 C-0.69566657 8.6909331 -2.65801312 17.07615143 -4.5625 25.5625 C-4.89561449 27.06305516 -5.22830035 28.56370554 -5.56054688 30.06445312 C-6.36875778 33.71074678 -7.18276619 37.35571664 -8 41 C-23.00002715 44.13692966 -38.00599636 47.24436542 -53.01733398 50.32666016 C-60.18605082 51.79920999 -67.3528381 53.28009967 -74.515625 54.78125 C-75.86497666 55.06329739 -77.21434161 55.34528118 -78.5637207 55.62719727 C-81.09402155 56.15647618 -83.62383098 56.68811135 -86.15307617 57.22241211 C-87.27689697 57.45710205 -88.40071777 57.69179199 -89.55859375 57.93359375 C-90.54142334 58.14040771 -91.52425293 58.34722168 -92.53686523 58.56030273 C-95 59 -95 59 -98 59 C-96.55908965 50.9727582 -94.70246338 43.05811571 -92.45556641 35.22070312 C-92.06747779 33.81979788 -91.70552363 32.41139807 -91.36962891 30.99707031 C-91.20253418 30.29936523 -91.03543945 29.60166016 -90.86328125 28.8828125 C-90.72301514 28.26567383 -90.58274902 27.64853516 -90.43823242 27.01269531 C-89.27537194 23.65174033 -87.99562402 20.96371678 -86 18 C-83.37747219 16.87240976 -81.49829474 16.28003493 -78.76123047 15.78955078 C-78.05422375 15.63859074 -77.34721703 15.48763069 -76.61878586 15.3320961 C-75.14285826 15.01928859 -73.66432567 14.71854381 -72.18355179 14.42954636 C-70.13065478 14.02570229 -68.09065275 13.58544108 -66.0496521 13.12564087 C-62.08555742 12.23768842 -58.11483453 11.38797064 -54.140625 10.546875 C-52.69331084 10.23884094 -51.24602547 9.93067153 -49.79876709 9.62237549 C-46.80440328 8.98524501 -43.80959381 8.35026479 -40.81445312 7.71679688 C-36.98044042 6.905641 -33.14782436 6.0880787 -29.31552505 5.26887131 C-26.34445828 4.63464144 -23.372604 4.0041675 -20.40050507 3.37479401 C-18.98566755 3.07463344 -17.57109708 2.77321109 -16.15680695 2.47048187 C-14.19162768 2.05032901 -12.225233 1.63587315 -10.25878906 1.22167969 C-9.14344788 0.98503601 -8.02810669 0.74839233 -6.87896729 0.50457764 C-4 0 -4 0 0 0 Z "
     fill="#A8AAAB"
     transform="translate(267,289)"
     id="path13"
     style="fill:#000000;fill-opacity:1" />
  <path
     d="M0 0 C4.42736772 3.61417773 8.27634101 7.29697951 11.96875 11.65234375 C13.54354141 13.47243921 15.14066744 15.24448095 16.78125 17.00390625 C17.27077148 17.52968262 17.76029297 18.05545898 18.26464844 18.59716797 C19.23340395 19.63439239 20.20527205 20.66872101 21.18066406 21.69970703 C23.89362394 24.61531474 26.08456671 27.50752663 28 31 C20.60306602 33.56563879 13.12490889 35.66720226 5.5625 37.6875 C4.37978516 38.00783203 3.19707031 38.32816406 1.97851562 38.65820312 C-6.74455291 41 -6.74455291 41 -9 41 C-8.37438211 33.21453294 -6.73290086 25.72562281 -4.98876953 18.13134766 C-4.4950304 15.97832939 -4.01070448 13.82333816 -3.52734375 11.66796875 C-1.13702343 1.13702343 -1.13702343 1.13702343 0 0 Z "
     fill="#545759"
     transform="translate(304,128)"
     id="path14"
     style="fill:#000000;fill-opacity:1" />
</svg>
