<svg width="189" height="175" viewBox="0 0 189 175" fill="none" xmlns="http://www.w3.org/2000/svg">
<path d="M6.6686 62.6906C3.11416 31.4078 27.5842 4 59.0683 4H129.417C160.901 4 185.371 31.4078 181.817 62.6906L174.826 124.217C171.798 150.868 149.248 171 122.426 171H66.0591C39.237 171 16.6875 150.868 13.6594 124.217L6.6686 62.6906Z" fill="#1D1D28" stroke="url(#paint0_linear_198_1143)" stroke-width="7.81287"/>
<path d="M16.703 66.938C13.5269 39.1224 35.2813 14.7427 63.2776 14.7427H123.256C151.252 14.7427 173.006 39.1224 169.83 66.9379L163.92 118.698C161.216 142.376 141.177 160.257 117.345 160.257H69.1878C45.3559 160.257 25.3169 142.376 22.6132 118.698L16.703 66.938Z" fill="url(#paint1_linear_198_1143)"/>
<path d="M63.2773 15.0356H123.256C151.077 15.0358 172.695 39.2632 169.539 66.9048L163.629 118.665C160.942 142.194 141.029 159.964 117.346 159.964H69.1875C45.5047 159.964 25.591 142.195 22.9043 118.665L16.9941 66.9048C13.8379 39.2632 35.4562 15.0358 63.2773 15.0356Z" stroke="url(#paint2_linear_198_1143)" stroke-opacity="0.45" stroke-width="0.585965"/>
<rect x="46.877" y="55.7603" width="17.5789" height="52.7368" rx="8.78947" fill="white"/>
<rect x="123.053" y="55.7603" width="17.5789" height="52.7368" rx="8.78947" fill="white"/>
<defs>
<linearGradient id="paint0_linear_198_1143" x1="11.7193" y1="14.2544" x2="157.722" y2="192.974" gradientUnits="userSpaceOnUse">
<stop stop-color="#A2FBFF"/>
<stop offset="1" stop-color="#00ADB5"/>
</linearGradient>
<linearGradient id="paint1_linear_198_1143" x1="93.2666" y1="14.7427" x2="93.2666" y2="160.257" gradientUnits="userSpaceOnUse">
<stop stop-color="#24242D" stop-opacity="0.25"/>
<stop offset="1" stop-color="#747493" stop-opacity="0.25"/>
</linearGradient>
<linearGradient id="paint2_linear_198_1143" x1="93.2666" y1="14.7427" x2="93.2666" y2="160.257" gradientUnits="userSpaceOnUse">
<stop stop-color="#3DD69D"/>
<stop offset="1" stop-color="#BFF08E"/>
</linearGradient>
</defs>
</svg>
