<svg width="141" height="39" viewBox="0 0 141 39" fill="none" xmlns="http://www.w3.org/2000/svg">
  <path d="M14.5138 26.0474C14.4049 26.1164 14.2627 26.0382 14.2627 25.9092L14.2627 22.7406C14.2627 22.6122 14.404 22.5339 14.5129 22.602L16.3982 23.7803C16.4939 23.8401 16.5519 23.9449 16.5519 24.0576V24.5754C16.5519 24.6874 16.4946 24.7916 16.4 24.8516L14.5138 26.0474Z" fill="#764AE0"/>
  <path d="M12.0697 16.3545C12.1732 16.2989 12.2985 16.3031 12.398 16.3655L19.5968 20.8751C19.6923 20.9349 19.7502 21.0396 19.7502 21.1522L19.7502 24.4452L9.76023 18.1482C9.54821 18.0146 9.55913 17.7019 9.77995 17.5834L12.0697 16.3545Z" fill="#764AE2"/>
  <path d="M19.4147 27.9995C19.595 27.9991 19.741 27.8528 19.741 27.6725L19.741 21.1585C19.741 21.0319 19.6032 20.9533 19.4942 21.0178L16.8385 22.5887L16.851 27.6783C16.8515 27.8589 16.9982 28.0049 17.1788 28.0045L19.4147 27.9995Z" fill="#764AE2"/>
  <path d="M12.4312 27.8198C12.2133 27.9543 11.9324 27.7975 11.9324 27.5415L11.9324 20.8601C11.9324 20.7317 12.0736 20.6534 12.1826 20.7214L13.7406 21.6952C13.8364 21.755 13.8945 21.8601 13.8943 21.9731L13.8859 26.7398C13.8857 26.8529 13.827 26.958 13.7307 27.0174L12.4312 27.8198Z" fill="#764AE0"/>
  <path d="M12.0607 32.5188C12.1641 32.5744 12.2894 32.5702 12.3889 32.5078L19.5878 27.9982C19.6832 27.9384 19.7412 27.8337 19.7412 27.7211L19.7412 24.428L9.75119 30.725C9.53918 30.8587 9.5501 31.1713 9.77092 31.2899L12.0607 32.5188Z" fill="#764AE2"/>
  <path d="M4.40058 28.1937C4.40058 28.3135 4.46603 28.4236 4.57119 28.4809L12.0185 32.5372C12.1222 32.5937 12.2482 32.5899 12.3482 32.5274L15.0623 30.8319L4.88328 25.3231C4.66538 25.2052 4.40059 25.363 4.40059 25.6107L4.40058 28.1937Z" fill="#6A42CA"/>
  <path d="M13.1299 4.44209C13.1516 4.57055 13.095 4.69962 12.9858 4.77064L7.42855 8.38472C7.32053 8.45497 7.18133 8.45525 7.07304 8.38542L4.53067 6.74622L12.2188 1.78312C12.4162 1.65569 12.6795 1.7718 12.7186 2.00348L13.1299 4.44209Z" fill="#6A42CA"/>
  <path d="M4.55566 6.61154C4.45762 6.67075 4.39771 6.77694 4.39771 6.89148L4.39778 28.179C4.39778 28.2986 4.4631 28.4087 4.5681 28.466L7.31788 29.9673L7.31788 4.94315L4.55566 6.61154Z" fill="#5B39AF"/>
  <path d="M33.3198 26.764C32.4545 26.764 31.6552 26.5953 30.9218 26.258C30.2032 25.906 29.6312 25.4073 29.2058 24.762L29.4918 24.19V26.5H26.7858V9.846H29.6678V16.908L29.2278 16.314C29.6385 15.6687 30.1958 15.17 30.8998 14.818C31.6038 14.4513 32.4178 14.268 33.3418 14.268C34.4712 14.268 35.4905 14.5467 36.3998 15.104C37.3092 15.6613 38.0278 16.4093 38.5558 17.348C39.0985 18.2867 39.3698 19.3427 39.3698 20.516C39.3698 21.6747 39.1058 22.7307 38.5778 23.684C38.0498 24.6373 37.3312 25.3927 36.4218 25.95C35.5125 26.4927 34.4785 26.764 33.3198 26.764ZM32.9898 24.124C33.6498 24.124 34.2365 23.97 34.7498 23.662C35.2632 23.354 35.6592 22.9287 35.9378 22.386C36.2312 21.8433 36.3778 21.22 36.3778 20.516C36.3778 19.812 36.2312 19.196 35.9378 18.668C35.6592 18.1253 35.2632 17.7 34.7498 17.392C34.2365 17.0693 33.6498 16.908 32.9898 16.908C32.3592 16.908 31.7872 17.062 31.2738 17.37C30.7752 17.678 30.3792 18.1107 30.0858 18.668C29.8072 19.2107 29.6678 19.8267 29.6678 20.516C29.6678 21.22 29.8072 21.8433 30.0858 22.386C30.3792 22.9287 30.7752 23.354 31.2738 23.662C31.7872 23.97 32.3592 24.124 32.9898 24.124ZM46.1431 26.764C44.9111 26.764 43.8331 26.4853 42.9091 25.928C41.9851 25.3707 41.2664 24.6153 40.7531 23.662C40.2398 22.7087 39.9831 21.6527 39.9831 20.494C39.9831 19.2913 40.2398 18.228 40.7531 17.304C41.2811 16.3653 41.9924 15.6247 42.8871 15.082C43.7964 14.5393 44.8084 14.268 45.9231 14.268C46.8618 14.268 47.6831 14.422 48.3871 14.73C49.1058 15.038 49.7144 15.4633 50.2131 16.006C50.7118 16.5487 51.0931 17.172 51.3571 17.876C51.6211 18.5653 51.7531 19.3133 51.7531 20.12C51.7531 20.3253 51.7384 20.538 51.7091 20.758C51.6944 20.978 51.6578 21.1687 51.5991 21.33H42.3591V19.13H49.9711L48.6071 20.164C48.7391 19.4893 48.7024 18.888 48.4971 18.36C48.3064 17.832 47.9838 17.414 47.5291 17.106C47.0891 16.798 46.5538 16.644 45.9231 16.644C45.3218 16.644 44.7864 16.798 44.3171 17.106C43.8478 17.3993 43.4884 17.8393 43.2391 18.426C43.0044 18.998 42.9164 19.6947 42.9751 20.516C42.9164 21.2493 43.0118 21.902 43.2611 22.474C43.5251 23.0313 43.9064 23.464 44.4051 23.772C44.9184 24.08 45.5051 24.234 46.1651 24.234C46.8251 24.234 47.3824 24.0947 47.8371 23.816C48.3064 23.5373 48.6731 23.1633 48.9371 22.694L51.2691 23.838C51.0344 24.41 50.6678 24.916 50.1691 25.356C49.6704 25.796 49.0764 26.1407 48.3871 26.39C47.7124 26.6393 46.9644 26.764 46.1431 26.764ZM52.8378 26.5V14.532H55.5438V17.194L55.3238 16.798C55.6025 15.9033 56.0351 15.28 56.6218 14.928C57.2231 14.576 57.9418 14.4 58.7778 14.4H59.4818V16.952H58.4478C57.6265 16.952 56.9665 17.2087 56.4678 17.722C55.9691 18.2207 55.7198 18.9247 55.7198 19.834V26.5H52.8378ZM59.9663 26.5V9.846H62.8483V26.5H59.9663ZM64.4093 26.5V14.532H67.2913V26.5H64.4093ZM64.4093 13.19V10.11H67.2913V13.19H64.4093ZM68.8523 26.5V14.532H71.5583V16.886L71.3383 16.468C71.6169 15.7493 72.0716 15.2067 72.7023 14.84C73.3476 14.4587 74.0956 14.268 74.9463 14.268C75.8263 14.268 76.6036 14.4587 77.2783 14.84C77.9676 15.2213 78.5029 15.7567 78.8843 16.446C79.2656 17.1207 79.4563 17.9053 79.4563 18.8V26.5H76.5743V19.482C76.5743 18.954 76.4716 18.4993 76.2663 18.118C76.0609 17.7367 75.7749 17.4433 75.4083 17.238C75.0563 17.018 74.6383 16.908 74.1543 16.908C73.6849 16.908 73.2669 17.018 72.9003 17.238C72.5336 17.4433 72.2476 17.7367 72.0423 18.118C71.8369 18.4993 71.7343 18.954 71.7343 19.482V26.5H68.8523ZM80.7933 26.5V9.846H83.6753V16.886L83.2793 16.468C83.5579 15.7493 84.0126 15.2067 84.6433 14.84C85.2886 14.4587 86.0366 14.268 86.8873 14.268C87.7673 14.268 88.5446 14.4587 89.2193 14.84C89.9086 15.2213 90.4439 15.7567 90.8253 16.446C91.2066 17.1207 91.3973 17.9053 91.3973 18.8V26.5H88.5153V19.482C88.5153 18.954 88.4126 18.4993 88.2073 18.118C88.0019 17.7367 87.7159 17.4433 87.3493 17.238C86.9973 17.018 86.5793 16.908 86.0953 16.908C85.6259 16.908 85.2079 17.018 84.8413 17.238C84.4746 17.4433 84.1886 17.7367 83.9833 18.118C83.7779 18.4993 83.6753 18.954 83.6753 19.482V26.5H80.7933ZM98.5863 26.764C97.413 26.764 96.3423 26.4927 95.3743 25.95C94.421 25.4073 93.6583 24.6667 93.0863 23.728C92.529 22.7893 92.2503 21.7187 92.2503 20.516C92.2503 19.3133 92.529 18.2427 93.0863 17.304C93.6583 16.3653 94.421 15.6247 95.3743 15.082C96.3276 14.5393 97.3983 14.268 98.5863 14.268C99.7596 14.268 100.823 14.5393 101.776 15.082C102.73 15.6247 103.485 16.3653 104.042 17.304C104.614 18.228 104.9 19.2987 104.9 20.516C104.9 21.7187 104.614 22.7893 104.042 23.728C103.47 24.6667 102.708 25.4073 101.754 25.95C100.801 26.4927 99.745 26.764 98.5863 26.764ZM98.5863 24.124C99.2316 24.124 99.7963 23.97 100.28 23.662C100.779 23.354 101.168 22.9287 101.446 22.386C101.74 21.8287 101.886 21.2053 101.886 20.516C101.886 19.812 101.74 19.196 101.446 18.668C101.168 18.1253 100.779 17.7 100.28 17.392C99.7963 17.0693 99.2316 16.908 98.5863 16.908C97.9263 16.908 97.347 17.0693 96.8483 17.392C96.3496 17.7 95.9536 18.1253 95.6603 18.668C95.3816 19.196 95.2423 19.812 95.2423 20.516C95.2423 21.2053 95.3816 21.8287 95.6603 22.386C95.9536 22.9287 96.3496 23.354 96.8483 23.662C97.347 23.97 97.9263 24.124 98.5863 24.124ZM110.254 26.764C109.33 26.764 108.523 26.5587 107.834 26.148C107.159 25.7373 106.639 25.1653 106.272 24.432C105.92 23.6987 105.744 22.8407 105.744 21.858V14.532H108.626V21.616C108.626 22.1147 108.721 22.5547 108.912 22.936C109.117 23.3027 109.403 23.596 109.77 23.816C110.151 24.0213 110.577 24.124 111.046 24.124C111.515 24.124 111.933 24.0213 112.3 23.816C112.667 23.596 112.953 23.2953 113.158 22.914C113.363 22.5327 113.466 22.078 113.466 21.55V14.532H116.348V26.5H113.62V24.146L113.862 24.564C113.583 25.2973 113.121 25.8473 112.476 26.214C111.845 26.5807 111.105 26.764 110.254 26.764ZM122.481 26.764C121.205 26.764 120.09 26.4633 119.137 25.862C118.198 25.246 117.553 24.4173 117.201 23.376L119.357 22.342C119.665 23.0167 120.09 23.5447 120.633 23.926C121.19 24.3073 121.806 24.498 122.481 24.498C123.009 24.498 123.427 24.3807 123.735 24.146C124.043 23.9113 124.197 23.6033 124.197 23.222C124.197 22.9873 124.131 22.7967 123.999 22.65C123.882 22.4887 123.713 22.3567 123.493 22.254C123.288 22.1367 123.06 22.0413 122.811 21.968L120.853 21.418C119.841 21.1247 119.071 20.6773 118.543 20.076C118.03 19.4747 117.773 18.7633 117.773 17.942C117.773 17.2087 117.956 16.5707 118.323 16.028C118.704 15.4707 119.225 15.038 119.885 14.73C120.56 14.422 121.33 14.268 122.195 14.268C123.324 14.268 124.322 14.5393 125.187 15.082C126.052 15.6247 126.668 16.3873 127.035 17.37L124.835 18.404C124.63 17.8613 124.285 17.4287 123.801 17.106C123.317 16.7833 122.774 16.622 122.173 16.622C121.689 16.622 121.308 16.732 121.029 16.952C120.75 17.172 120.611 17.458 120.611 17.81C120.611 18.03 120.67 18.2207 120.787 18.382C120.904 18.5433 121.066 18.6753 121.271 18.778C121.491 18.8807 121.74 18.976 122.019 19.064L123.933 19.636C124.916 19.9293 125.671 20.3693 126.199 20.956C126.742 21.5427 127.013 22.2613 127.013 23.112C127.013 23.8307 126.822 24.4687 126.441 25.026C126.06 25.5687 125.532 25.994 124.857 26.302C124.182 26.61 123.39 26.764 122.481 26.764ZM133.804 26.764C132.572 26.764 131.494 26.4853 130.57 25.928C129.646 25.3707 128.927 24.6153 128.414 23.662C127.9 22.7087 127.644 21.6527 127.644 20.494C127.644 19.2913 127.9 18.228 128.414 17.304C128.942 16.3653 129.653 15.6247 130.548 15.082C131.457 14.5393 132.469 14.268 133.584 14.268C134.522 14.268 135.344 14.422 136.048 14.73C136.766 15.038 137.375 15.4633 137.874 16.006C138.372 16.5487 138.754 17.172 139.018 17.876C139.282 18.5653 139.414 19.3133 139.414 20.12C139.414 20.3253 139.399 20.538 139.37 20.758C139.355 20.978 139.318 21.1687 139.26 21.33H130.02V19.13H137.632L136.268 20.164C136.4 19.4893 136.363 18.888 136.158 18.36C135.967 17.832 135.644 17.414 135.19 17.106C134.75 16.798 134.214 16.644 133.584 16.644C132.982 16.644 132.447 16.798 131.978 17.106C131.508 17.3993 131.149 17.8393 130.9 18.426C130.665 18.998 130.577 19.6947 130.636 20.516C130.577 21.2493 130.672 21.902 130.922 22.474C131.186 23.0313 131.567 23.464 132.066 23.772C132.579 24.08 133.166 24.234 133.826 24.234C134.486 24.234 135.043 24.0947 135.498 23.816C135.967 23.5373 136.334 23.1633 136.598 22.694L138.93 23.838C138.695 24.41 138.328 24.916 137.83 25.356C137.331 25.796 136.737 26.1407 136.048 26.39C135.373 26.6393 134.625 26.764 133.804 26.764Z" fill="#020407"/>
</svg>
